<svg width="217" height="48" viewBox="0 0 217 48" fill="none" xmlns="http://www.w3.org/2000/svg">
<g clip-path="url(#clip0_438_86)">
<path d="M24.4905 14C20.348 14 17 17.3926 17 21.5902V42.2141C17 42.655 17.3405 43 17.7755 43C17.8701 43 17.9647 42.9808 18.0593 42.9425L30.5435 38.0357C31.4136 37.6907 32 36.8282 32 35.889V21.6094C32 17.4118 28.633 14 24.4905 14Z" fill="#EC6139"/>
<path d="M7.49054 0C3.34805 0 0 3.35139 0 7.49802V42.2237C0 42.6592 0.340479 43 0.775536 43C0.870113 43 0.964691 42.9811 1.05927 42.9432L13.5435 38.096C14.4136 37.7552 15 36.9031 15 35.9753V7.49802C15 3.35139 11.633 0 7.49054 0Z" fill="#EC6139"/>
<path d="M59 16.1569C56.312 16.1569 54.3865 17.0175 52.9567 17.8968V10.4321C52.9567 9.08509 51.851 8 50.4783 8C49.1057 8 48 9.08509 48 10.4321V38.7381C48 38.869 48.1144 38.9813 48.2478 38.9813C48.286 38.9813 48.305 38.9813 48.3432 38.9626L52.4991 37.3911C52.7851 37.2788 52.9757 36.9982 52.9757 36.6989L52.9567 26.5776C52.9567 22.6488 56.4645 20.5721 59 20.5721C61.5165 20.5721 64.9861 22.6675 64.9861 26.5776V38.7381C64.9861 38.869 65.1005 39 65.253 39C65.2912 39 65.3102 39 65.3484 38.9813L69.5234 37.3911C69.8094 37.2788 70 36.9982 70 36.6989V26.5963C70 20.834 65.0624 16.1569 59 16.1569Z" fill="white"/>
<path d="M157 16.1569C154.312 16.1569 152.386 17.0175 150.957 17.8968V10.4321C150.957 9.08509 149.851 8 148.478 8C147.106 8 146 9.08509 146 10.4321V38.7381C146 38.869 146.114 38.9813 146.248 38.9813C146.286 38.9813 146.305 38.9813 146.343 38.9626L150.499 37.3911C150.785 37.2788 150.976 36.9982 150.976 36.6989L150.957 26.5776C150.957 22.6488 154.464 20.5721 157 20.5721C159.516 20.5721 162.986 22.6675 162.986 26.5776V38.7381C162.986 38.869 163.101 39 163.253 39C163.291 39 163.31 39 163.348 38.9813L167.523 37.3911C167.809 37.2788 168 36.9982 168 36.6989V26.5963C168 20.834 163.062 16.1569 157 16.1569Z" fill="white"/>
<path d="M129.128 32.6808H129.091C127.025 32.6808 125.926 30.7363 125.926 29.3527V10.4307C125.926 9.08446 124.827 8 123.463 8C122.099 8 121 9.08446 121 10.4307V29.334C121 31.0355 121.72 32.8865 122.914 34.2888C123.975 35.5229 125.888 37 129.091 37H130V32.7369L129.128 32.6808Z" fill="white"/>
<path d="M189.503 17H189.464C188.092 17 186.986 18.0884 186.986 19.4395V33.5884H181C177.054 33.5884 174.957 30.0418 174.957 27.4709V19.4395C174.957 18.0884 173.851 17 172.478 17C171.106 17 170 18.0884 170 19.4395V27.4709C170 29.7978 170.972 32.3499 172.631 34.2639C174.061 35.934 176.672 37.9419 181 37.9419H186.986C186.795 40.4564 184.756 43.6465 181.057 43.6465H174.556V48H181.057C185.347 48 187.958 46.0109 189.388 44.3408C191.028 42.4268 192 39.8935 192 37.5854V19.4582C191.981 18.0884 190.856 17 189.503 17Z" fill="white"/>
<path d="M94 28.9301C94 27.086 93.9237 25.2608 93.0087 23.2097C92.1126 21.3468 89.3293 17 83 17C78.6724 17 76.0607 18.9946 74.6308 20.6882C72.9913 22.6075 72 25.1667 72 27.5C72 29.8333 72.9723 32.3925 74.6308 34.3118C76.0607 35.9866 78.6724 38 83 38H91.0069V33.6344H83C79.9879 33.6344 78.1958 31.6586 77.4333 29.6452H94V28.9301ZM88.6049 25.336H77.4142C78.1768 23.3038 79.9688 21.3091 82.9809 21.3091C85.974 21.3091 87.8614 23.4355 88.6049 25.336Z" fill="white"/>
<path d="M214.401 20.6915C212.988 19.0152 210.389 17 206.132 17C203.156 17 200.368 18.0547 198.296 19.9381C196.168 21.8969 195 24.5713 195 27.4906C195 29.826 195.961 32.3874 197.599 34.3085C199.012 35.9848 201.592 38 205.868 38H209.39V33.6305H205.868C201.969 33.6305 199.897 30.0709 199.897 27.4906C199.897 24.8915 201.969 21.2942 205.868 21.2942C210.408 21.2942 212.103 25.0987 212.103 27.4906V38H217V27.4906C217 25.1552 216.021 22.6126 214.401 20.6915Z" fill="white"/>
<path d="M115.401 20.6915C113.988 19.0152 111.389 17 107.132 17C104.156 17 101.368 18.0547 99.2962 19.9381C97.1678 21.8969 96 24.5713 96 27.4906C96 29.826 96.9606 32.3874 98.5993 34.3085C100.012 35.9848 102.592 38 106.868 38H110.39V33.6305H106.868C102.969 33.6305 100.897 30.0709 100.897 27.4906C100.897 24.8915 102.969 21.2942 106.868 21.2942C111.408 21.2942 113.103 25.0987 113.103 27.4906V38H118V27.4906C118 25.1552 117.039 22.6126 115.401 20.6915Z" fill="white"/>
<path d="M140.278 32.6808C138.209 32.6808 137.108 30.7363 137.108 29.3527V20.4526H141.551V16.1522H137.108V10.4307C137.108 9.08446 136.006 8 134.639 8C133.272 8 132.171 9.08446 132.171 10.4307V16.1522H129V20.4339H132.171V29.334C132.171 31.0355 132.892 32.8865 134.089 34.2888C135.152 35.5229 137.07 37 140.278 37H144V32.6622H140.278V32.6808Z" fill="white"/>
</g>
<defs>
<clipPath id="clip0_438_86">
<rect width="217" height="48" fill="white"/>
</clipPath>
</defs>
</svg>
