<svg width="101" height="101" viewBox="0 0 101 101" fill="none" xmlns="http://www.w3.org/2000/svg">
<path d="M93.5914 96.6896H90.3515V69.549C90.3515 68.8188 89.7583 68.2103 89.013 68.2103C88.2676 68.2103 87.6744 68.8036 87.6744 69.549V96.6744H81.2098V56.7547H87.6744V63.9962C87.6744 64.7264 88.2676 65.335 89.013 65.335C89.7583 65.335 90.3515 64.7416 90.3515 63.9962V55.4159C90.3515 54.6856 89.7583 54.0771 89.013 54.0771H79.8864C79.1563 54.0771 78.5479 54.6704 78.5479 55.4159V96.6896H75.1254V47.8092C75.1254 47.079 74.5322 46.4705 73.7869 46.4705H64.6603C63.9302 46.4705 63.3218 47.0638 63.3218 47.8092V96.6896H59.8993V64.5439C59.8993 63.8136 59.3061 63.2051 58.5608 63.2051H49.4343C48.7041 63.2051 48.0957 63.7984 48.0957 64.5439V73.6718C48.0957 74.4021 48.6889 75.0106 49.4343 75.0106C50.1796 75.0106 50.7728 74.4173 50.7728 73.6718V65.8674H57.2374V96.6744H50.7728V79.7572C50.7728 79.0269 50.1796 78.4184 49.4343 78.4184C48.6889 78.4184 48.0957 79.0117 48.0957 79.7572V96.6896H44.6733V73.6718C44.6733 72.9416 44.08 72.3331 43.3347 72.3331H34.2082C33.478 72.3331 32.8696 72.9264 32.8696 73.6718V96.6896H29.7057C28.9756 96.6896 28.3672 97.2829 28.3672 98.0283C28.3672 98.7738 28.9604 99.3671 29.7057 99.3671H93.5914C94.3216 99.3671 94.93 98.7738 94.93 98.0283C94.93 97.2829 94.3216 96.6896 93.5914 96.6896ZM35.6076 96.6896V75.0106H42.0722V96.6896H35.6076ZM66.0293 96.6896V49.148H72.494V96.6896H66.0293Z" fill="#0A2F3A"/>
<path d="M92.0699 2.36694H76.9351C76.2049 2.36694 75.5965 2.96026 75.5965 3.70571C75.5965 4.45117 76.1897 5.04448 76.9351 5.04448H92.0699C94.6862 5.04448 96.8309 7.17435 96.8309 9.80625V14.568H5.18534V9.77582C5.18534 7.15913 7.31487 5.01406 9.94635 5.01406H72.311C73.0411 5.01406 73.6495 4.42074 73.6495 3.67529C73.6495 2.92984 73.0259 2.36694 72.2957 2.36694H9.93114C5.83941 2.36694 2.52344 5.68344 2.52344 9.77582V22.4181C2.52344 23.1483 3.11666 23.7568 3.862 23.7568C4.60733 23.7568 5.20055 23.1635 5.20055 22.4181V17.1847H96.8461V79.757C96.8461 81.9477 95.3707 83.8494 93.2411 84.3666C92.5262 84.5492 92.1003 85.2642 92.2676 85.9793C92.4197 86.5878 92.9673 86.9833 93.5606 86.9833C93.667 86.9833 93.7735 86.9681 93.88 86.9377C97.1807 86.1162 99.4928 83.1496 99.4928 79.7418V9.77582C99.4928 5.68344 96.1616 2.36694 92.0699 2.36694Z" fill="#0A2F3A"/>
<path d="M11.4508 11.2971C12.2908 11.2971 12.9719 10.6159 12.9719 9.77572C12.9719 8.93552 12.2908 8.25439 11.4508 8.25439C10.6107 8.25439 9.92969 8.93552 9.92969 9.77572C9.92969 10.6159 10.6107 11.2971 11.4508 11.2971Z" fill="#0A2F3A"/>
<path d="M17.5367 11.2971C18.3768 11.2971 19.0578 10.6159 19.0578 9.77572C19.0578 8.93552 18.3768 8.25439 17.5367 8.25439C16.6966 8.25439 16.0156 8.93552 16.0156 9.77572C16.0156 10.6159 16.6966 11.2971 17.5367 11.2971Z" fill="#0A2F3A"/>
<path d="M23.6227 11.2971C24.4627 11.2971 25.1437 10.6159 25.1437 9.77572C25.1437 8.93552 24.4627 8.25439 23.6227 8.25439C22.7826 8.25439 22.1016 8.93552 22.1016 9.77572C22.1016 10.6159 22.7826 11.2971 23.6227 11.2971Z" fill="#0A2F3A"/>
<path d="M32.4105 54.4573C32.7147 55.1266 33.5057 55.4157 34.175 55.1114C36.1372 54.2139 37.9016 52.9816 39.4379 51.4602C42.8452 48.0525 44.7313 43.5037 44.7313 38.6811C44.7313 28.7164 36.6239 20.6077 26.6608 20.6077C16.6977 20.6077 8.60547 28.7164 8.60547 38.6811C8.60547 48.6458 16.6977 56.7545 26.6608 56.7545C27.756 56.7545 28.8664 56.648 29.9463 56.4502C30.6612 56.3133 31.148 55.6287 31.0111 54.8985C30.8742 54.1682 30.1897 53.6966 29.4596 53.8335C28.5469 54.0009 27.6039 54.0921 26.6608 54.0921C18.1731 54.0921 11.2522 47.1853 11.2522 38.6811C11.2522 30.6332 17.4582 24.0154 25.3222 23.3308V38.6811C25.3222 38.7115 25.3374 38.7419 25.3374 38.7723C25.3526 38.8941 25.3679 39.0005 25.3983 39.107C25.4135 39.1375 25.4135 39.1679 25.4135 39.1983C25.4135 39.2135 25.4287 39.2287 25.4439 39.244C25.5048 39.3809 25.596 39.5178 25.7025 39.6243L36.5479 50.4714C35.4831 51.369 34.3119 52.1144 33.0341 52.6925C32.3953 52.9968 32.1063 53.7879 32.4105 54.4573ZM38.4492 48.5849L29.8703 40.0046H42.0086C41.7348 43.1842 40.5027 46.1508 38.4492 48.5849ZM42.0086 37.3575H27.9993V23.3461C35.4223 23.9698 41.3697 29.9182 42.0086 37.3575Z" fill="#0A2F3A"/>
<path d="M54.0417 27.8492H90.5478C91.2779 27.8492 91.8864 27.2559 91.8864 26.5104C91.8864 25.7649 91.2931 25.1716 90.5478 25.1716H54.0417C53.3116 25.1716 52.7031 25.7649 52.7031 26.5104C52.7031 27.2559 53.3116 27.8492 54.0417 27.8492Z" fill="#0A2F3A"/>
<path d="M54.0417 33.9346H90.5478C91.2779 33.9346 91.8864 33.3413 91.8864 32.5958C91.8864 31.8504 91.2931 31.2571 90.5478 31.2571H54.0417C53.3116 31.2571 52.7031 31.8504 52.7031 32.5958C52.7031 33.3413 53.3116 33.9346 54.0417 33.9346Z" fill="#0A2F3A"/>
<path d="M90.5471 37.3574H66.2097C65.4795 37.3574 64.8711 37.9507 64.8711 38.6962C64.8711 39.4416 65.4643 40.035 66.2097 40.035H90.5471C91.2772 40.035 91.8856 39.4416 91.8856 38.6962C91.8856 37.9507 91.2772 37.3574 90.5471 37.3574Z" fill="#0A2F3A"/>
<path d="M8.60505 67.5862C8.60505 68.3164 9.19828 68.925 9.94361 68.925H16.028C16.7581 68.925 17.3665 68.3317 17.3665 67.5862V61.5009C17.3665 60.7706 16.7733 60.1621 16.028 60.1621H9.9284C9.19828 60.1621 8.58984 60.7554 8.58984 61.5009V67.5862H8.60505ZM11.267 62.8397H14.6894V66.2626H11.267V62.8397Z" fill="#0A2F3A"/>
<path d="M22.0964 60.1775C21.3662 60.1775 20.7578 60.7708 20.7578 61.5163V67.6016C20.7578 68.3318 21.351 68.9403 22.0964 68.9403H28.1807C28.9108 68.9403 29.5193 68.347 29.5193 67.6016V61.5163C29.5193 60.786 28.9261 60.1775 28.1807 60.1775H22.0964ZM26.8574 66.2628H23.4349V62.8398H26.8574V66.2628Z" fill="#0A2F3A"/>
<path d="M9.9284 75.0106H28.1815C28.9116 75.0106 29.52 74.4172 29.52 73.6718C29.52 72.9263 28.9268 72.333 28.1815 72.333H9.9284C9.19828 72.333 8.58984 72.9263 8.58984 73.6718C8.58984 74.4172 9.19828 75.0106 9.9284 75.0106Z" fill="#0A2F3A"/>
<path d="M9.9284 81.0958H22.0971C22.8272 81.0958 23.4357 80.5024 23.4357 79.757C23.4357 79.0115 22.8424 78.4182 22.0971 78.4182H9.9284C9.19828 78.4182 8.58984 79.0115 8.58984 79.757C8.58984 80.5024 9.19828 81.0958 9.9284 81.0958Z" fill="#0A2F3A"/>
<path d="M31.043 85.8424C31.043 85.1122 30.4498 84.5036 29.7045 84.5036H9.93031C7.31404 84.5036 5.1693 82.3738 5.1693 79.7419V29.0055C5.1693 28.2753 4.57608 27.6667 3.83075 27.6667C3.08541 27.6667 2.49219 28.2601 2.49219 29.0055V79.7571C2.49219 83.8495 5.82337 87.1812 9.9151 87.1812H29.6892C30.4346 87.1812 31.043 86.5727 31.043 85.8424Z" fill="#0A2F3A"/>
</svg>
