<svg width="101" height="101" viewBox="0 0 101 101" fill="none" xmlns="http://www.w3.org/2000/svg">
<g clip-path="url(#clip0_464_356)">
<path d="M80.3116 79.2496C80.1766 79.0319 79.9931 78.8484 79.7754 78.7135H79.8252L71.1498 73.2727V31.8034C71.1502 31.5934 71.1108 31.385 71.0337 31.1897L59.4223 1.54748C59.2429 1.0936 58.8728 0.741522 58.4104 0.58539C57.9518 0.431954 57.4488 0.486486 57.0337 0.73468L36.9294 12.5617L31.3227 16.4101C30.6459 16.8148 30.3478 17.64 30.6094 18.384L39.6497 44.2276V71.0168L21.254 81.5997C20.4661 82.0673 20.2065 83.0849 20.6738 83.8726C20.8157 84.1115 21.0151 84.311 21.254 84.4528L47.1972 100.277C47.7103 100.574 48.3427 100.574 48.8559 100.277L79.7754 81.5334C80.5542 81.0509 80.7943 80.0284 80.3116 79.2496ZM56.9839 4.55006L67.8488 32.0856V78.2658L49.6853 89.6449V44.261C49.6868 44.0808 49.6588 43.9015 49.6024 43.7302L39.7824 14.7349L56.9839 4.55006ZM34.1592 18.4837L36.9128 16.5927L46.3678 44.543V89.7942L42.9673 87.8369V43.8795C42.9652 43.6927 42.9316 43.5077 42.8678 43.3321L34.1592 18.4837ZM48.0265 96.9601L25.3346 83.0762L39.6497 74.7824V88.7326C39.6058 89.3986 39.9653 90.0261 40.5621 90.325L47.1972 94.0904L47.446 94.19H47.5787H47.8441H48.01C48.1476 94.2074 48.287 94.2074 48.4246 94.19H48.5739L48.8393 94.0739L70.4199 80.6047C70.906 80.3009 71.2008 79.7678 71.1996 79.1947V77.2208L75.8275 80.1236L48.0265 96.9601Z" fill="#0A2F3A"/>
<path d="M65.6126 31.4056L57.7998 10.024C57.4704 9.16912 56.5104 8.74324 55.6557 9.0725C55.6005 9.09365 55.5466 9.11791 55.4942 9.14486L43.6837 15.8629C42.9767 16.2668 42.6675 17.1244 42.9538 17.8866L51.0486 39.4506C51.1716 39.9439 51.5139 40.3534 51.9776 40.562C52.4462 40.7258 52.9635 40.6708 53.3875 40.4127L64.916 33.3961C65.5944 32.9845 65.8863 32.1501 65.6126 31.4056ZM53.288 36.5643L46.4041 18.152L55.2951 13.0596L61.9302 31.306L53.288 36.5643Z" fill="#0A2F3A"/>
<path d="M65.6476 38.0424C65.1931 37.5008 64.4452 37.3069 63.7848 37.5595L53.3346 43.9955C52.6329 44.5845 52.5415 45.6308 53.1305 46.3325C53.585 46.8741 54.3329 47.0679 54.9933 46.8154L65.4436 40.3794C66.1452 39.7903 66.2367 38.744 65.6476 38.0424Z" fill="#0A2F3A"/>
</g>
<defs>
<clipPath id="clip0_464_356">
<rect width="100" height="100" fill="white" transform="translate(0.5 0.5)"/>
</clipPath>
</defs>
</svg>
