<svg width="60" height="60" viewBox="0 0 60 60" fill="none" xmlns="http://www.w3.org/2000/svg">
<g clip-path="url(#clip0_515_124)">
<path d="M47.4143 37.1697C46.186 35.8908 44.7044 35.207 43.1341 35.207C41.5765 35.207 40.0822 35.8782 38.8032 37.1571L34.8016 41.1458C34.4723 40.9685 34.1431 40.8039 33.8265 40.6393C33.3706 40.4114 32.9401 40.1961 32.5728 39.9682C28.8245 37.5876 25.418 34.4853 22.1508 30.4712C20.5679 28.4705 19.5042 26.7864 18.7317 25.077C19.7701 24.1273 20.7325 23.1396 21.6696 22.1899C22.0242 21.8354 22.3788 21.4681 22.7333 21.1136C25.3927 18.4544 25.3927 15.0102 22.7333 12.3511L19.2762 8.89419C18.8837 8.50165 18.4784 8.09645 18.0985 7.69125C17.3387 6.90617 16.5409 6.09576 15.7178 5.33601C14.4895 4.1204 13.0205 3.47461 11.4756 3.47461C9.93064 3.47461 8.43636 4.1204 7.17002 5.33601C7.15735 5.34867 7.15735 5.34867 7.14469 5.36133L2.83913 9.7046C1.21821 11.3254 0.293785 13.3008 0.0911706 15.5927C-0.212751 19.2902 0.876302 22.7344 1.71209 24.9883C3.76356 30.5219 6.82811 35.6502 11.3996 41.1458C16.9462 47.7683 23.6198 52.998 31.2432 56.6828C34.1557 58.063 38.0434 59.6965 42.387 59.975C42.6529 59.9877 42.9315 60.0004 43.1848 60.0004C46.11 60.0004 48.5667 58.9494 50.4915 56.8601C50.5042 56.8347 50.5295 56.8221 50.5422 56.7967C51.2007 55.999 51.9605 55.2772 52.7583 54.5048C53.3028 53.9856 53.86 53.4412 54.4045 52.8713C55.6582 51.5671 56.3167 50.0476 56.3167 48.4901C56.3167 46.9199 55.6455 45.4131 54.3665 44.1468L47.4143 37.1697ZM51.9478 50.5034C51.9352 50.5034 51.9352 50.5161 51.9478 50.5034C51.454 51.0353 50.9474 51.5164 50.4029 52.0483C49.5798 52.8334 48.744 53.6564 47.9589 54.5808C46.6799 55.9483 45.1729 56.5941 43.1974 56.5941C43.0075 56.5941 42.8049 56.5941 42.6149 56.5815C38.8539 56.3409 35.3588 54.872 32.7374 53.6184C25.57 50.1489 19.2762 45.2231 14.0462 38.9805C9.72803 33.7762 6.84077 28.9644 4.92859 23.7981C3.7509 20.6451 3.32034 18.1885 3.51029 15.8713C3.63693 14.3898 4.20678 13.1615 5.25784 12.1105L9.57607 7.79255C10.1966 7.21007 10.8551 6.89351 11.5009 6.89351C12.2987 6.89351 12.9445 7.37468 13.3498 7.77989C13.3624 7.79255 13.3751 7.80521 13.3878 7.81787C14.1602 8.53964 14.8947 9.28673 15.6672 10.0845C16.0597 10.4897 16.465 10.8949 16.8702 11.3127L20.3273 14.7696C21.6696 16.1119 21.6696 17.3528 20.3273 18.695C19.9601 19.0622 19.6055 19.4295 19.2382 19.784C18.1745 20.873 17.1614 21.886 16.0597 22.8737C16.0344 22.899 16.0091 22.9117 15.9964 22.937C14.9074 24.026 15.11 25.0896 15.3379 25.8114C15.3506 25.8494 15.3632 25.8874 15.3759 25.9254C16.275 28.1033 17.5413 30.1547 19.4662 32.5985L19.4789 32.6112C22.974 36.9165 26.659 40.2721 30.724 42.8426C31.2432 43.1718 31.775 43.4377 32.2816 43.691C32.7374 43.9189 33.168 44.1342 33.5352 44.3621C33.5859 44.3874 33.6365 44.4254 33.6872 44.4507C34.1178 44.666 34.523 44.7673 34.9409 44.7673C35.9919 44.7673 36.6504 44.1088 36.8657 43.8936L41.1966 39.563C41.6272 39.1324 42.311 38.6133 43.1088 38.6133C43.8939 38.6133 44.5397 39.1071 44.9323 39.5376C44.945 39.5503 44.945 39.5503 44.9576 39.563L51.9352 46.54C53.2395 47.8316 53.2395 49.1612 51.9478 50.5034Z" fill="#0A2F3A"/>
<path d="M32.4189 14.2759C35.7367 14.8331 38.7506 16.4032 41.1567 18.8091C43.5627 21.215 45.1203 24.2287 45.6902 27.5463C45.8295 28.382 46.5513 28.9645 47.3744 28.9645C47.4757 28.9645 47.5643 28.9518 47.6657 28.9392C48.6027 28.7872 49.2233 27.9008 49.0713 26.9638C48.3875 22.9498 46.488 19.2903 43.588 16.3905C40.6881 13.4908 37.0284 11.5914 33.0141 10.9077C32.077 10.7557 31.2032 11.3762 31.0386 12.3005C30.874 13.2249 31.4818 14.1239 32.4189 14.2759Z" fill="#0A2F3A"/>
<path d="M59.9269 26.4694C58.7999 19.8596 55.6847 13.8448 50.8979 9.05839C46.1111 4.27193 40.096 1.15694 33.4857 0.0299677C32.5613 -0.134646 31.6875 0.498483 31.5229 1.42285C31.3709 2.35988 31.9914 3.2336 32.9285 3.39821C38.8297 4.39856 44.2116 7.19699 48.4918 11.4643C52.7721 15.7442 55.558 21.1258 56.5584 27.0266C56.6977 27.8623 57.4195 28.4448 58.2427 28.4448C58.344 28.4448 58.4326 28.4321 58.5339 28.4195C59.4584 28.2802 60.0915 27.3938 59.9269 26.4694Z" fill="#0A2F3A"/>
</g>
<defs>
<clipPath id="clip0_515_124">
<rect width="60" height="59.9961" fill="white" transform="translate(0 0.00390625)"/>
</clipPath>
</defs>
</svg>
