<svg width="60" height="60" viewBox="0 0 60 60" fill="none" xmlns="http://www.w3.org/2000/svg">
<path d="M40.0167 39.6428C46.4014 29.6241 45.5988 30.874 45.7828 30.6128C48.1073 27.3341 49.3359 23.4752 49.3359 19.4531C49.3359 8.78672 40.6804 0 30 0C19.3545 0 10.6641 8.76937 10.6641 19.4531C10.6641 23.4727 11.9184 27.4325 14.3191 30.7554L19.983 39.6429C13.9274 40.5735 3.63281 43.3467 3.63281 49.4531C3.63281 51.6791 5.0857 54.8514 12.0073 57.3233C16.8403 59.0494 23.2302 60 30 60C42.6592 60 56.3672 56.4291 56.3672 49.4531C56.3672 43.3457 46.0847 40.5754 40.0167 39.6428ZM17.2557 28.8217C17.2364 28.7914 17.2162 28.7619 17.1952 28.7329C15.1975 25.9846 14.1797 22.7275 14.1797 19.4531C14.1797 10.662 21.2585 3.51562 30 3.51562C38.7233 3.51562 45.8203 10.6651 45.8203 19.4531C45.8203 22.7327 44.8218 25.8793 42.9321 28.5552C42.7628 28.7786 43.6462 27.4061 30 48.819L17.2557 28.8217ZM30 56.4844C16.1726 56.4844 7.14844 52.42 7.14844 49.4531C7.14844 47.4591 11.7853 44.1803 22.0603 42.9022L28.5176 53.0346C28.8403 53.5411 29.3993 53.8477 29.9999 53.8477C30.6005 53.8477 31.1596 53.541 31.4822 53.0346L37.9393 42.9022C48.2146 44.1803 52.8516 47.4591 52.8516 49.4531C52.8516 52.3948 43.9086 56.4844 30 56.4844Z" fill="#0A2F3A"/>
<path d="M30 10.6641C25.1537 10.6641 21.2109 14.6068 21.2109 19.4531C21.2109 24.2994 25.1537 28.2422 30 28.2422C34.8463 28.2422 38.7891 24.2994 38.7891 19.4531C38.7891 14.6068 34.8463 10.6641 30 10.6641ZM30 24.7266C27.0922 24.7266 24.7266 22.3609 24.7266 19.4531C24.7266 16.5454 27.0922 14.1797 30 14.1797C32.9078 14.1797 35.2734 16.5454 35.2734 19.4531C35.2734 22.3609 32.9078 24.7266 30 24.7266Z" fill="#0A2F3A"/>
</svg>
